<svg width="60" height="60" viewBox="0 0 60 60" fill="none" xmlns="http://www.w3.org/2000/svg">
<g clip-path="url(#clip0_13_1332)">
<path d="M51.2146 51.2127C62.9313 39.4961 62.9313 20.4995 51.2146 8.78286C39.4979 -2.93382 20.5014 -2.93382 8.78476 8.78287C-2.93192 20.4996 -2.93193 39.4961 8.78476 51.2127C20.5014 62.9294 39.4979 62.9294 51.2146 51.2127Z" fill="#FFB500"/>
<path d="M45.0551 4.05322L4.05322 45.0404C6.45462 49.1677 9.80171 52.6658 13.8191 55.2468L55.2566 13.8044C52.6741 9.79378 49.1781 6.45213 45.0551 4.05322Z" fill="#FFDC45"/>
<path d="M47.2307 47.2287C56.747 37.7123 56.747 22.2833 47.2307 12.7669C37.7143 3.25061 22.2853 3.2506 12.7689 12.7669C3.2526 22.2833 3.2526 37.7123 12.7689 47.2287C22.2853 56.745 37.7143 56.745 47.2307 47.2287Z" fill="#AB6100"/>
<path d="M30.0023 53.0048C25.623 52.996 21.3365 51.7418 17.6432 49.3885C13.9499 47.0352 11.0022 43.68 9.14402 39.7144C9.07521 39.5671 9.06775 39.3984 9.12329 39.2456C9.17883 39.0927 9.29282 38.9682 9.44017 38.8994C9.58753 38.8306 9.75618 38.8231 9.90903 38.8787C10.0619 38.9342 10.1864 39.0482 10.2552 39.1955C12.0066 42.9562 14.7953 46.1385 18.2935 48.3683C21.7917 50.5981 25.8539 51.7827 30.0023 51.7827C34.1507 51.7827 38.2129 50.5981 41.7111 48.3683C45.2093 46.1385 47.998 42.9562 49.7494 39.1955C49.8182 39.0482 49.9427 38.9342 50.0956 38.8787C50.2484 38.8231 50.4171 38.8306 50.5644 38.8994C50.7118 38.9682 50.8258 39.0927 50.8813 39.2456C50.9369 39.3984 50.9294 39.5671 50.8606 39.7144C49.0005 43.6785 46.0523 47.0325 42.3594 49.3855C38.6666 51.7385 34.3811 52.9937 30.0023 53.0048Z" fill="#ED9A00"/>
<path d="M50.3025 21.1667C50.1857 21.1667 50.0714 21.133 49.9733 21.0696C49.8752 21.0062 49.7974 20.9159 49.7494 20.8094C47.9966 17.0504 45.2073 13.8698 41.7093 11.6413C38.2113 9.41274 34.1499 8.22893 30.0023 8.22893C25.8547 8.22893 21.7933 9.41274 18.2953 11.6413C14.7973 13.8698 12.008 17.0504 10.2552 20.8094C10.1864 20.9567 10.0619 21.0707 9.90903 21.1263C9.75618 21.1818 9.58753 21.1744 9.44017 21.1055C9.29282 21.0367 9.17883 20.9122 9.12329 20.7594C9.06775 20.6065 9.07521 20.4379 9.14402 20.2905C10.9933 16.3176 13.9388 12.9555 17.6339 10.5997C21.329 8.24383 25.6201 6.99231 30.0023 6.99231C34.3845 6.99231 38.6756 8.24383 42.3707 10.5997C46.0658 12.9555 49.0113 16.3176 50.8606 20.2905C50.929 20.4386 50.936 20.6077 50.8801 20.7609C50.8241 20.9141 50.7097 21.0389 50.562 21.108C50.4809 21.1465 50.3923 21.1666 50.3025 21.1667Z" fill="#ED9A00"/>
<path d="M21.5634 30.3549L17.0353 33.8843L16.4773 31.9262C16.4429 31.8021 16.3688 31.6927 16.2662 31.6149C16.1636 31.537 16.0382 31.4951 15.9094 31.4955H13.829C13.747 31.488 13.6644 31.4977 13.5864 31.5239C13.5083 31.5502 13.4366 31.5924 13.3759 31.6479C13.3151 31.7034 13.2665 31.771 13.2333 31.8463C13.2001 31.9216 13.1829 32.003 13.1829 32.0853C13.1829 32.1676 13.2001 32.2491 13.2333 32.3244C13.2665 32.3997 13.3151 32.4673 13.3759 32.5228C13.4366 32.5783 13.5083 32.6205 13.5864 32.6467C13.6644 32.673 13.747 32.6827 13.829 32.6752H15.464L15.9535 34.3689H12.5269C12.386 33.9411 12.0974 33.5774 11.7126 33.3431C11.3279 33.1089 10.8723 33.0194 10.4275 33.0907C9.98273 33.162 9.57793 33.3895 9.28571 33.7323C8.9935 34.0751 8.83301 34.5108 8.83301 34.9612C8.83301 35.4117 8.9935 35.8474 9.28571 36.1902C9.57793 36.533 9.98273 36.7604 10.4275 36.8318C10.8723 36.9031 11.3279 36.8136 11.7126 36.5793C12.0974 36.3451 12.386 35.9814 12.5269 35.5535H16.5311C16.5975 35.5826 16.6692 35.5976 16.7416 35.5976C16.7952 35.6048 16.8495 35.6048 16.9032 35.5976C16.9915 35.5722 17.0729 35.5267 17.1408 35.4648C17.2087 35.4028 17.2614 35.3259 17.2948 35.2403L22.1508 31.4612H23.1543V30.2766H21.9452C21.8128 30.2611 21.6789 30.2885 21.5634 30.3549ZM10.7304 35.5927C10.5907 35.5927 10.4543 35.5512 10.3382 35.4736C10.2222 35.3959 10.1319 35.2855 10.0787 35.1564C10.0254 35.0273 10.0118 34.8853 10.0394 34.7485C10.067 34.6116 10.1346 34.486 10.2337 34.3876C10.3327 34.2892 10.4588 34.2225 10.5959 34.1958C10.7329 34.1692 10.8748 34.1839 11.0035 34.238C11.1322 34.2921 11.242 34.3832 11.3188 34.4997C11.3957 34.6163 11.4362 34.7531 11.4353 34.8927C11.434 35.0788 11.3591 35.2568 11.2271 35.388C11.095 35.5191 10.9165 35.5927 10.7304 35.5927Z" fill="#ED9A00"/>
<path d="M22.1457 28.7102L17.0645 24.6717C16.9598 24.5895 16.8305 24.5447 16.6974 24.5444H12.5659C12.4251 24.1193 12.1376 23.7581 11.7547 23.5257C11.3719 23.2933 10.9189 23.2048 10.4767 23.2761C10.0346 23.3474 9.63232 23.5738 9.34194 23.9147C9.05157 24.2557 8.89209 24.6889 8.89209 25.1367C8.89209 25.5846 9.05157 26.0178 9.34194 26.3587C9.63232 26.6996 10.0346 26.926 10.4767 26.9973C10.9189 27.0686 11.3719 26.9801 11.7547 26.7477C12.1376 26.5153 12.4251 26.1542 12.5659 25.729H16.482L18.2785 27.1584L17.3974 27.7214H15.3904C15.2111 27.3098 14.8911 26.9755 14.4878 26.7784C14.0844 26.5813 13.6241 26.5342 13.1892 26.6456C12.7543 26.757 12.3733 27.0196 12.1144 27.3864C11.8555 27.7531 11.7357 28.2 11.7763 28.6471C11.817 29.0942 12.0155 29.5122 12.3362 29.8263C12.657 30.1403 13.0791 30.3299 13.527 30.361C13.9748 30.3922 14.4191 30.2629 14.7803 29.9962C15.1415 29.7296 15.3959 29.3431 15.4981 28.906H17.5687C17.6852 28.9106 17.8 28.8781 17.8967 28.813L19.238 27.9319L21.5485 29.7675C21.6525 29.8511 21.7822 29.8961 21.9156 29.8948H23.1247V28.7102H22.1457ZM10.7791 25.8269C10.5926 25.8244 10.4145 25.7484 10.2835 25.6156C10.1525 25.4828 10.0791 25.3037 10.0791 25.1171C10.0791 25.0248 10.0974 24.9334 10.1329 24.8481C10.1684 24.7629 10.2204 24.6855 10.2859 24.6204C10.3514 24.5554 10.4291 24.5039 10.5146 24.469C10.6001 24.4341 10.6917 24.4165 10.784 24.4171C10.971 24.4171 11.1503 24.4914 11.2825 24.6236C11.4147 24.7558 11.4889 24.9351 11.4889 25.122C11.4864 25.309 11.4106 25.4876 11.2779 25.6194C11.1452 25.7512 10.9662 25.8257 10.7791 25.8269ZM13.6771 29.1703C13.5377 29.1694 13.4017 29.1271 13.2863 29.0488C13.1709 28.9705 13.0813 28.8598 13.0289 28.7307C12.9764 28.6015 12.9634 28.4597 12.9916 28.3231C13.0197 28.1866 13.0877 28.0614 13.187 27.9636C13.2863 27.8657 13.4123 27.7994 13.5493 27.7731C13.6862 27.7469 13.8278 27.7618 13.9562 27.8161C14.0847 27.8703 14.1941 27.9614 14.2708 28.0779C14.3474 28.1943 14.3878 28.3309 14.3869 28.4703C14.3862 28.5629 14.3674 28.6544 14.3313 28.7397C14.2953 28.825 14.2429 28.9023 14.1769 28.9673C14.111 29.0323 14.033 29.0837 13.9472 29.1185C13.8614 29.1534 13.7696 29.171 13.6771 29.1703Z" fill="#ED9A00"/>
<path d="M38.0743 30.2277H36.8652V31.4123H37.8688L42.7247 35.1914C42.7576 35.2765 42.8096 35.353 42.8766 35.4149C42.9436 35.4769 43.024 35.5227 43.1115 35.5487C43.1667 35.5556 43.2226 35.5556 43.2779 35.5487C43.3504 35.5487 43.422 35.5337 43.4884 35.5046H47.4926C47.6334 35.9298 47.9209 36.2909 48.3037 36.5233C48.6866 36.7557 49.1396 36.8442 49.5818 36.7729C50.0239 36.7017 50.4262 36.4753 50.7166 36.1343C51.0069 35.7934 51.1664 35.3602 51.1664 34.9123C51.1664 34.4645 51.0069 34.0313 50.7166 33.6903C50.4262 33.3494 50.0239 33.123 49.5818 33.0517C49.1396 32.9804 48.6866 33.0689 48.3037 33.3013C47.9209 33.5337 47.6334 33.8949 47.4926 34.32H44.066L44.5555 32.6263H46.1905C46.2725 32.6338 46.3551 32.6241 46.4332 32.5978C46.5112 32.5716 46.5829 32.5294 46.6437 32.4739C46.7045 32.4184 46.753 32.3508 46.7862 32.2755C46.8195 32.2002 46.8366 32.1187 46.8366 32.0364C46.8366 31.9541 46.8195 31.8727 46.7862 31.7974C46.753 31.7221 46.7045 31.6545 46.6437 31.599C46.5829 31.5435 46.5112 31.5013 46.4332 31.475C46.3551 31.4488 46.2725 31.4391 46.1905 31.4466H44.1101C43.9813 31.4462 43.856 31.4881 43.7534 31.566C43.6508 31.6438 43.5766 31.7532 43.5422 31.8773L42.9842 33.8354L38.4464 30.3549C38.3394 30.2734 38.2089 30.2287 38.0743 30.2277ZM48.5696 34.8927C48.5686 34.7531 48.6091 34.6164 48.686 34.4998C48.7629 34.3832 48.8726 34.2921 49.0013 34.238C49.13 34.1839 49.2719 34.1693 49.409 34.1959C49.546 34.2225 49.6721 34.2893 49.7712 34.3877C49.8702 34.4861 49.9379 34.6117 49.9655 34.7485C49.9931 34.8854 49.9794 35.0274 49.9262 35.1565C49.873 35.2856 49.7826 35.3959 49.6666 35.4736C49.5506 35.5513 49.4141 35.5928 49.2745 35.5928C49.1821 35.5934 49.0906 35.5758 49.0051 35.5409C48.9196 35.506 48.8418 35.4545 48.7763 35.3895C48.7108 35.3244 48.6588 35.247 48.6233 35.1618C48.5878 35.0765 48.5696 34.9851 48.5696 34.8927Z" fill="#ED9A00"/>
<path d="M36.8555 28.715V29.8996H38.0646C38.1978 29.9001 38.3273 29.8552 38.4317 29.7723L40.7422 27.9366L42.0835 28.8178C42.1802 28.8828 42.295 28.9154 42.4115 28.9108H44.4821C44.5843 29.3466 44.8384 29.7317 45.1987 29.9974C45.5589 30.263 46.002 30.3917 46.4485 30.3604C46.8951 30.3292 47.3159 30.14 47.6357 29.8268C47.9555 29.5136 48.1533 29.0968 48.1939 28.651C48.2344 28.2052 48.1149 27.7596 47.8569 27.3938C47.5988 27.0281 47.219 26.7661 46.7854 26.6549C46.3518 26.5436 45.8928 26.5903 45.4905 26.7866C45.0883 26.9829 44.769 27.3159 44.5898 27.7261H42.5828L41.7164 27.1583L43.5129 25.7289H47.429C47.5698 26.1554 47.8579 26.5178 48.2417 26.7512C48.6255 26.9845 49.0798 27.0735 49.5233 27.0022C49.9667 26.9309 50.3703 26.7039 50.6616 26.3621C50.9529 26.0202 51.1129 25.5857 51.1129 25.1366C51.1129 24.6875 50.9529 24.253 50.6616 23.9111C50.3703 23.5693 49.9667 23.3423 49.5233 23.271C49.0798 23.1997 48.6255 23.2887 48.2417 23.5221C47.8579 23.7554 47.5698 24.1178 47.429 24.5443H43.2975C43.1642 24.5438 43.0348 24.5887 42.9304 24.6716L37.8492 28.7101L36.8555 28.715ZM48.5157 25.1219C48.5158 24.9827 48.557 24.8466 48.6342 24.7308C48.7115 24.615 48.8213 24.5247 48.9498 24.4712C49.0783 24.4177 49.2198 24.4034 49.3564 24.4302C49.493 24.457 49.6186 24.5237 49.7174 24.6218C49.8161 24.7199 49.8837 24.845 49.9114 24.9814C49.9392 25.1178 49.9259 25.2594 49.8733 25.3883C49.8207 25.5172 49.7311 25.6276 49.6158 25.7057C49.5006 25.7837 49.3647 25.8259 49.2255 25.8268C49.0385 25.8256 48.8595 25.751 48.7268 25.6193C48.5941 25.4875 48.5183 25.3089 48.5157 25.1219ZM45.6178 28.4702C45.6168 28.3308 45.6572 28.1942 45.7339 28.0778C45.8105 27.9613 45.92 27.8702 46.0484 27.816C46.1769 27.7617 46.3185 27.7468 46.4554 27.773C46.5923 27.7993 46.7184 27.8655 46.8177 27.9634C46.9169 28.0613 46.9849 28.1865 47.0131 28.323C47.0412 28.4596 47.0283 28.6014 46.9758 28.7306C46.9234 28.8597 46.8338 28.9704 46.7184 29.0487C46.603 29.127 46.467 29.1693 46.3276 29.1702C46.235 29.1709 46.1432 29.1533 46.0575 29.1184C45.9717 29.0836 45.8936 29.0322 45.8277 28.9672C45.7618 28.9022 45.7094 28.8249 45.6733 28.7396C45.6373 28.6543 45.6184 28.5628 45.6178 28.4702Z" fill="#ED9A00"/>
<path d="M42.0594 23.859C42.0594 19.0863 38.246 15.131 33.3264 14.5582V10.0547H29.5865V14.4603H26.8844V10.0547L23.1445 10.0547V14.4603H17.9458V20.6919H20.3053L20.3053 39.6068H17.9458V45.8432H23.1445V49.9796H26.8844V45.8432H29.5865V49.9796H33.3264V45.76C38.2216 45.1628 42.0594 41.2124 42.0594 36.4347C42.048 34.0851 41.1249 31.8316 39.4845 30.1493C41.1252 28.4652 42.0483 26.2102 42.0594 23.859ZM32.039 20.6919C34.1243 20.6919 35.8229 22.1115 35.8229 23.859C35.8229 25.6066 34.1243 27.0311 32.039 27.0311H26.5417V20.6919H32.039ZM32.039 39.6068H26.5417L26.5417 33.292H32.039C34.1243 33.292 35.8229 34.7116 35.8229 36.4592C35.8229 38.2068 34.1243 39.6068 32.039 39.6068Z" fill="#FFB500"/>
<path d="M34.3838 14.7246L28.4166 20.6918H32.039C34.1243 20.6918 35.8229 22.1114 35.8229 23.859C35.8229 25.6066 34.1243 27.031 32.039 27.031H26.5417V22.5667L20.3053 28.8031L20.3053 39.6067H17.9458V45.8432H23.1445V45.9362L29.4739 39.6067H26.5368L26.5368 33.292H32.0341C33.0471 33.2769 34.0301 33.636 34.795 34.3004L40.9726 28.1276C41.6816 26.8252 42.0535 25.3662 42.0545 23.8835C42.0594 19.4338 38.7796 15.7183 34.3838 14.7246Z" fill="#FFDC45"/>
</g>
<defs>
<clipPath id="clip0_13_1332">
<rect width="60" height="60" fill="white"/>
</clipPath>
</defs>
</svg>
